<?xml version="1.0" encoding="UTF-8"?>
<svg width="24px" height="24px" viewBox="0 0 24 24" version="1.1" xmlns="http://www.w3.org/2000/svg" xmlns:xlink="http://www.w3.org/1999/xlink">
    <g id="icon/24px/bad" stroke="none" stroke-width="1" fill="none" fill-rule="evenodd">
        <rect id="bound" fill-rule="nonzero" x="0" y="0" width="24" height="24"></rect>
        <path d="M10.6,12 L8.3,9.7 C7.9,9.3 7.9,8.7 8.3,8.3 C8.7,7.9 9.3,7.9 9.7,8.3 L12,10.6 L14.3,8.3 C14.7,7.9 15.3,7.9 15.7,8.3 C16.1,8.7 16.1,9.3 15.7,9.7 L13.4,12 L15.7,14.3 C16.1,14.7 16.1,15.3 15.7,15.7 C15.5,15.9 15.3,16 15,16 C14.7,16 14.5,15.9 14.3,15.7 L12,13.4 L9.7,15.7 C9.5,15.9 9.3,16 9,16 C8.7,16 8.5,15.9 8.3,15.7 C7.9,15.3 7.9,14.7 8.3,14.3 L10.6,12 Z M12,24 C5.4,24 0,18.6 0,12 C0,5.4 5.4,0 12,0 C18.6,0 24,5.4 24,12 C24,18.6 18.6,24 12,24 Z M12,2 C6.5,2 2,6.5 2,12 C2,17.5 6.5,22 12,22 C17.5,22 22,17.5 22,12 C22,6.5 17.5,2 12,2 Z" id="Combined-Shape" fill="#1C1C1C" fill-rule="nonzero"></path>
    </g>
</svg>