<?xml version="1.0" encoding="UTF-8"?>
<svg width="24px" height="24px" viewBox="0 0 24 24" version="1.1" xmlns="http://www.w3.org/2000/svg" xmlns:xlink="http://www.w3.org/1999/xlink">
    <!-- Generator: Sketch 52.6 (67491) - http://www.bohemiancoding.com/sketch -->
    <title>icon/24px/close@1,5x</title>
    <desc>Created with Sketch.</desc>
    <g id="icon/24px/close" stroke="none" stroke-width="1" fill="none" fill-rule="evenodd">
        <rect id="bound" fill-rule="nonzero" x="0" y="0" width="24" height="24"></rect>
        <path d="M10.5857864,12 L6.34314575,7.75735931 C5.95262146,7.36683502 5.95262146,6.73367004 6.34314575,6.34314575 C6.73367004,5.95262146 7.36683502,5.95262146 7.75735931,6.34314575 L12,10.5857864 L16.2426407,6.34314575 C16.633165,5.95262146 17.26633,5.95262146 17.6568542,6.34314575 C18.0473785,6.73367004 18.0473785,7.36683502 17.6568542,7.75735931 L13.4142136,12 L17.6568542,16.2426407 C18.0473785,16.633165 18.0473785,17.26633 17.6568542,17.6568542 C17.26633,18.0473785 16.633165,18.0473785 16.2426407,17.6568542 L12,13.4142136 L7.75735931,17.6568542 C7.36683502,18.0473785 6.73367004,18.0473785 6.34314575,17.6568542 C5.95262146,17.26633 5.95262146,16.633165 6.34314575,16.2426407 L10.5857864,12 Z" id="Combined-Shape" fill="#1C1C1C" fill-rule="nonzero"></path>
    </g>
</svg>