<?xml version="1.0" encoding="UTF-8"?>
<svg width="24px" height="24px" viewBox="0 0 24 24" version="1.1" xmlns="http://www.w3.org/2000/svg" xmlns:xlink="http://www.w3.org/1999/xlink">
    <g id="icon/24px/good" stroke="none" stroke-width="1" fill="none" fill-rule="evenodd">
        <rect id="bound" fill-rule="nonzero" x="0" y="0" width="24" height="24"></rect>
        <path d="M10.6125,15.925 C10.5,15.875 10.4,15.8 10.3,15.7 L7.3,12.7 C6.9,12.3 6.9,11.7 7.3,11.3 C7.7,10.9 8.3,10.9 8.7,11.3 L11,13.6 L16.3,8.3 C16.7,7.9 17.3,7.9 17.7,8.3 C18.1,8.7 18.1,9.3 17.7,9.7 L11.7,15.7 C11.5,15.9 11.3,16 11,16 C10.85,16 10.725,15.975 10.6125,15.925 Z M12,24 C5.4,24 0,18.6 0,12 C0,5.4 5.4,0 12,0 C18.6,0 24,5.4 24,12 C24,18.6 18.6,24 12,24 Z M12,2 C6.5,2 2,6.5 2,12 C2,17.5 6.5,22 12,22 C17.5,22 22,17.5 22,12 C22,6.5 17.5,2 12,2 Z" id="Combined-Shape" fill="#1C1C1C" fill-rule="nonzero"></path>
    </g>
</svg>